<svg width="412" height="572" viewBox="0 0 412 572" fill="none" xmlns="http://www.w3.org/2000/svg">
<g clip-path="url(#clip0_354_1188)">
<g clip-path="url(#clip1_354_1188)">
<rect width="96" height="57.2" transform="matrix(-1 0 0 -1 446 572)" fill="#C5F06F"/>
<rect width="96" height="57.2" transform="matrix(-1 0 0 -1 254 572)" fill="#F75E63"/>
<rect width="96" height="57.2" transform="matrix(-1 0 0 -1 158 572)" fill="#42CDFF"/>
<rect width="96" height="57.2" transform="matrix(-1 0 0 -1 62 572)" fill="#FFDF62"/>
</g>
<g clip-path="url(#clip2_354_1188)">
<rect width="96" height="57.2" transform="matrix(-1 0 0 -1 446 514.8)" fill="#42CDFF"/>
<rect width="96" height="57.2" transform="matrix(-1 0 0 -1 350 514.8)" fill="#FFDF62"/>
<rect width="96" height="57.2" transform="matrix(-1 0 0 -1 158 514.8)" fill="#C5F06F"/>
<rect width="96" height="57.2" transform="matrix(-1 0 0 -1 62 514.8)" fill="#F75E63"/>
</g>
<g clip-path="url(#clip3_354_1188)">
<rect width="96" height="57.2" transform="matrix(-1 0 0 -1 62 457.6)" fill="#F75E63"/>
</g>
<g clip-path="url(#clip4_354_1188)">
<rect width="96" height="57.2" transform="matrix(-1 0 0 -1 446 400.4)" fill="#C5F06F"/>
<rect width="96" height="57.2" transform="matrix(-1 0 0 -1 62 400.4)" fill="#42CDFF"/>
</g>
<g clip-path="url(#clip5_354_1188)">
<rect width="96" height="57.2" transform="matrix(-1 0 0 -1 62 343.2)" fill="#FFDF62"/>
</g>
<g clip-path="url(#clip6_354_1188)">
<rect width="96" height="57.2" transform="matrix(-1 0 0 -1 446 228.8)" fill="#F75E63"/>
<rect width="96" height="57.2" transform="matrix(-1 0 0 -1 62 228.8)" fill="#42CDFF"/>
</g>
<g clip-path="url(#clip7_354_1188)">
<rect width="96" height="57.2" transform="matrix(-1 0 0 -1 446 114.4)" fill="#FFDF62"/>
<rect width="96" height="57.2" transform="matrix(-1 0 0 -1 158 114.4)" fill="#F75E63"/>
<rect width="96" height="57.2" transform="matrix(-1 0 0 -1 62 114.4)" fill="#C5F06F"/>
</g>
<g clip-path="url(#clip8_354_1188)">
<rect width="96" height="57.2" transform="matrix(-1 0 0 -1 446 57.2002)" fill="#42CDFF"/>
<rect width="96" height="57.2" transform="matrix(-1 0 0 -1 254 57.2002)" fill="#C5F06F"/>
<rect width="96" height="57.2" transform="matrix(-1 0 0 -1 158 57.2002)" fill="#42CDFF"/>
<rect width="96" height="57.2" transform="matrix(-1 0 0 -1 62 57.2002)" fill="#FFDF62"/>
</g>
<rect width="25" height="13" transform="translate(16 164)" fill="#42CDFF"/>
<rect width="25" height="13" transform="translate(364 164)" fill="#F75E63"/>
<rect width="25" height="13" transform="translate(364 335)" fill="#C5F06F"/>
<rect width="25" height="13" transform="translate(16 280)" fill="#FFDF62"/>
<rect width="25" height="13" transform="translate(268 452)" fill="#FFDF62"/>
<rect width="25" height="13" transform="translate(315 452)" fill="#FFDF62"/>
<rect width="25" height="13" transform="translate(371 451)" fill="#42CDFF"/>
<rect width="25" height="13" transform="translate(75 451)" fill="#C5F06F"/>
<rect width="25" height="13" transform="translate(122 451)" fill="#C5F06F"/>
</g>
<defs>
<clipPath id="clip0_354_1188">
<rect width="480" height="572" fill="white" transform="matrix(-1 0 0 -1 446 572)"/>
</clipPath>
<clipPath id="clip1_354_1188">
<rect width="480" height="57.2" fill="white" transform="matrix(-1 0 0 -1 446 572)"/>
</clipPath>
<clipPath id="clip2_354_1188">
<rect width="480" height="57.2" fill="white" transform="matrix(-1 0 0 -1 446 514.8)"/>
</clipPath>
<clipPath id="clip3_354_1188">
<rect width="480" height="57.2" fill="white" transform="matrix(-1 0 0 -1 446 457.6)"/>
</clipPath>
<clipPath id="clip4_354_1188">
<rect width="480" height="57.2" fill="white" transform="matrix(-1 0 0 -1 446 400.4)"/>
</clipPath>
<clipPath id="clip5_354_1188">
<rect width="480" height="57.2" fill="white" transform="matrix(-1 0 0 -1 446 343.2)"/>
</clipPath>
<clipPath id="clip6_354_1188">
<rect width="480" height="57.2" fill="white" transform="matrix(-1 0 0 -1 446 228.8)"/>
</clipPath>
<clipPath id="clip7_354_1188">
<rect width="480" height="57.2" fill="white" transform="matrix(-1 0 0 -1 446 114.4)"/>
</clipPath>
<clipPath id="clip8_354_1188">
<rect width="480" height="57.2" fill="white" transform="matrix(-1 0 0 -1 446 57.2002)"/>
</clipPath>
</defs>
</svg>
