<svg width="1461" height="1046" viewBox="0 0 1461 1046" fill="none" xmlns="http://www.w3.org/2000/svg">
<g clip-path="url(#clip0_593_1263)">
<rect width="1461" height="1046" fill="white"/>
<rect x="657.5" y="118" width="146" height="90" rx="19" fill="#FFDF62"/>
<rect x="657.5" y="118" width="146" height="90" rx="19" stroke="#E79344" stroke-width="10"/>
<rect x="550" y="172" width="361" height="204" rx="35" fill="#FFDF62"/>
<rect x="550" y="172" width="361" height="204" rx="35" stroke="#E79344" stroke-width="10"/>
<circle cx="662" cy="274" r="19" fill="black"/>
<circle cx="662" cy="274" r="19" fill="black"/>
<circle cx="662" cy="274" r="19" fill="black"/>
<circle cx="662" cy="274" r="19" fill="black"/>
<circle cx="662" cy="274" r="19" fill="black"/>
<circle cx="799" cy="274" r="19" fill="black"/>
<circle cx="799" cy="274" r="19" fill="black"/>
<circle cx="799" cy="274" r="19" fill="black"/>
<circle cx="799" cy="274" r="19" fill="black"/>
<circle cx="799" cy="274" r="19" fill="black"/>
<g clip-path="url(#clip1_593_1263)">
<rect width="1461" height="688" transform="translate(0 329)" fill="url(#paint0_linear_593_1263)"/>
<path d="M974.842 380.641L1020.84 380.184L1020.68 364.185L974.684 364.641L974.842 380.641Z" fill="white"/>
<path d="M955.685 364.83L1039.68 363.997L1039 295L955 295.833L955.685 364.83Z" fill="white"/>
<path d="M818 882H772V898H818V882Z" fill="white"/>
<path d="M837 898H753V1001H837V898Z" fill="white"/>
<path d="M1246 880H1200V896H1246V880Z" fill="white"/>
<path d="M1265 896H1181V999H1265V896Z" fill="white"/>
<path d="M1078 882H1032V898H1078V882Z" fill="white"/>
<path d="M1097 898H1013V1001H1097V898Z" fill="white"/>
<path d="M1330 880H1284V896H1330V880Z" fill="white"/>
<path d="M1349 896H1265V999H1349V896Z" fill="white"/>
<g opacity="0.55" clip-path="url(#clip2_593_1263)">
<path d="M1367.5 443H1321.5V459H1367.5V443Z" fill="#F75E63"/>
<path d="M1435.5 443H1389.5V459H1435.5V443Z" fill="#F75E63"/>
<path d="M1503.5 443H1457.5V459H1503.5V443Z" fill="#F75E63"/>
<path d="M1539 459H1286V528H1539V459Z" fill="#F75E63"/>
</g>
<g opacity="0.55" clip-path="url(#clip3_593_1263)">
<path d="M41.5 696H-4.5V712H41.5V696Z" fill="#C5F06F"/>
<path d="M109.5 696H63.5V712H109.5V696Z" fill="#C5F06F"/>
<path d="M177.5 696H131.5V712H177.5V696Z" fill="#C5F06F"/>
<path d="M213 712H-40V781H213V712Z" fill="#C5F06F"/>
</g>
<g opacity="0.55" clip-path="url(#clip4_593_1263)">
<path d="M326.5 528H280.5V544H326.5V528Z" fill="#FFE57E"/>
<path d="M394.5 528H348.5V544H394.5V528Z" fill="#FFE57E"/>
<path d="M462.5 528H416.5V544H462.5V528Z" fill="#FFE57E"/>
<path d="M498 544H245V613H498V544Z" fill="#FFE57E"/>
</g>
<g opacity="0.55" clip-path="url(#clip5_593_1263)">
<path d="M1035.5 777H989.5V793H1035.5V777Z" fill="#42CDFF"/>
<path d="M1103.5 777H1057.5V793H1103.5V777Z" fill="#42CDFF"/>
<path d="M1171.5 777H1125.5V793H1171.5V777Z" fill="#42CDFF"/>
<path d="M1207 793H954V862H1207V793Z" fill="#42CDFF"/>
</g>
<g opacity="0.55" clip-path="url(#clip6_593_1263)">
<path d="M67.5 409H21.5V425H67.5V409Z" fill="#F75E63"/>
<path d="M103 425H-150V494H103V425Z" fill="#F75E63"/>
</g>
</g>
<path d="M65 286H19V302H65V286Z" fill="#65D5FD"/>
<path d="M84 302H0V371H84V302Z" fill="#65D5FD"/>
<path d="M20.1303 990.858L66.1262 990.245L65.9131 974.247L19.9172 974.86L20.1303 990.858Z" fill="#EDFAFF"/>
<path d="M0.918827 975.113L84.9114 973.994L83.9924 905L-0.000130326 906.119L0.918827 975.113Z" fill="url(#paint1_linear_593_1263)"/>
<path d="M272.13 989.858L318.126 989.245L317.913 973.247L271.917 973.86L272.13 989.858Z" fill="#EDFAFF"/>
<path d="M252.919 974.113L336.911 972.994L335.992 904L252 905.119L252.919 974.113Z" fill="url(#paint2_linear_593_1263)"/>
<path d="M355.13 988.858L401.126 988.245L400.913 972.247L354.917 972.86L355.13 988.858Z" fill="#EDFAFF"/>
<path d="M335.919 973.113L419.911 971.994L418.992 903L335 904.119L335.919 973.113Z" fill="url(#paint3_linear_593_1263)"/>
<path d="M430.13 988.858L476.126 988.245L475.913 972.247L429.917 972.86L430.13 988.858Z" fill="#EDFAFF"/>
<path d="M410.919 973.113L494.911 971.994L493.992 903L410 904.119L410.919 973.113Z" fill="url(#paint4_linear_593_1263)"/>
<path d="M682.13 986.858L728.126 986.245L727.913 970.247L681.917 970.86L682.13 986.858Z" fill="#EDFAFF"/>
<path d="M662.919 971.113L746.911 969.994L745.992 901L662 902.119L662.919 971.113Z" fill="url(#paint5_linear_593_1263)"/>
<path d="M858.13 982.858L904.126 982.245L903.913 966.247L857.917 966.86L858.13 982.858Z" fill="#EDFAFF"/>
<path d="M838.919 967.113L922.911 965.994L921.992 897L838 898.119L838.919 967.113Z" fill="url(#paint6_linear_593_1263)"/>
<path d="M943.13 975.858L989.126 975.245L988.913 959.247L942.917 959.86L943.13 975.858Z" fill="#EDFAFF"/>
<path d="M923.919 960.113L1007.91 958.994L1006.99 890L923 891.119L923.919 960.113Z" fill="url(#paint7_linear_593_1263)"/>
<path d="M1119.13 976.858L1165.13 976.245L1164.91 960.247L1118.92 960.86L1119.13 976.858Z" fill="#EDFAFF"/>
<path d="M1099.92 961.113L1183.91 959.994L1182.99 891L1099 892.119L1099.92 961.113Z" fill="url(#paint8_linear_593_1263)"/>
<path d="M1374.13 977.858L1420.13 977.245L1419.91 961.247L1373.92 961.86L1374.13 977.858Z" fill="#EDFAFF"/>
<path d="M1354.92 962.113L1438.91 960.994L1437.99 892L1354 893.119L1354.92 962.113Z" fill="url(#paint9_linear_593_1263)"/>
<path d="M513.13 987.858L559.126 987.245L558.913 971.247L512.917 971.86L513.13 987.858Z" fill="#EDFAFF"/>
<path d="M493.919 972.113L577.911 970.994L576.992 902L493 903.119L493.919 972.113Z" fill="url(#paint10_linear_593_1263)"/>
<path d="M150 889H104V905H150V889Z" fill="white"/>
<path d="M169 905H85V1008H169V905Z" fill="white"/>
<path d="M643 885H597V901H643V885Z" fill="white"/>
<path d="M662 901H578V1016H662V901Z" fill="white"/>
<path d="M234 889H188V905H234V889Z" fill="white"/>
<path d="M253 905H169V1008H253V905Z" fill="white"/>
<path d="M495 274H449V290H495V274Z" fill="#65D5FD"/>
<path d="M514 290H430V359H514V290Z" fill="#65D5FD"/>
<path d="M579 274H533V290H579V274Z" fill="#65D5FD"/>
<path d="M598 290H514V359H598V290Z" fill="#65D5FD"/>
<path d="M904 274H858V290H904V274Z" fill="#65D5FD"/>
<path d="M923 290H839V359H923V290Z" fill="#65D5FD"/>
<path d="M1442 286H1396V302H1442V286Z" fill="#65D5FD"/>
<path d="M1461 302H1377V371H1461V302Z" fill="#65D5FD"/>
<path d="M1358 286H1312V302H1358V286Z" fill="#65D5FD"/>
<path d="M1377 302H1293V371H1377V302Z" fill="#65D5FD"/>
<path d="M103.842 381.641L149.84 381.184L149.681 365.185L103.684 365.641L103.842 381.641Z" fill="white"/>
<path d="M84.6846 365.83L168.68 364.997L167.996 296L84.0001 296.833L84.6846 365.83Z" fill="white"/>
<rect x="246.5" y="310" width="167" height="74" rx="18" fill="#FFDF62"/>
<rect x="246.5" y="310" width="167" height="74" rx="18" stroke="#E79344" stroke-width="10"/>
<rect x="1047.5" y="310" width="167" height="74" rx="18" fill="#FFDF62"/>
<rect x="1047.5" y="310" width="167" height="74" rx="18" stroke="#E79344" stroke-width="10"/>
<g clip-path="url(#clip7_593_1263)">
<rect x="411" y="454" width="639" height="334" rx="52" fill="white"/>
<path d="M577 488H623V472H577V488Z" fill="#67D6FE"/>
<path d="M558 472H642V403H558V472Z" fill="#67D6FE"/>
</g>
<path d="M539 420H493V436H539V420Z" fill="white"/>
<path d="M558 436H474V505H558V436Z" fill="white"/>
<path d="M877 827H923V811H877V827Z" fill="white"/>
<path d="M858 811H942V742H858V811Z" fill="white"/>
<path d="M951 827H997V811H951V827Z" fill="white"/>
<path d="M932 811H1016V742H932V811Z" fill="white"/>
</g>
<defs>
<linearGradient id="paint0_linear_593_1263" x1="730.5" y1="0" x2="730.5" y2="688" gradientUnits="userSpaceOnUse">
<stop offset="0.104" stop-color="#65D5FD"/>
<stop offset="0.994" stop-color="white"/>
</linearGradient>
<linearGradient id="paint1_linear_593_1263" x1="41.9961" y1="905.559" x2="42.9151" y2="974.553" gradientUnits="userSpaceOnUse">
<stop stop-color="#E3F8FF"/>
<stop offset="0.624" stop-color="#EDFAFF"/>
</linearGradient>
<linearGradient id="paint2_linear_593_1263" x1="293.996" y1="904.559" x2="294.915" y2="973.553" gradientUnits="userSpaceOnUse">
<stop stop-color="#E3F8FF"/>
<stop offset="0.624" stop-color="#EDFAFF"/>
</linearGradient>
<linearGradient id="paint3_linear_593_1263" x1="376.996" y1="903.559" x2="377.915" y2="972.553" gradientUnits="userSpaceOnUse">
<stop stop-color="#E3F8FF"/>
<stop offset="0.624" stop-color="#EDFAFF"/>
</linearGradient>
<linearGradient id="paint4_linear_593_1263" x1="451.996" y1="903.559" x2="452.915" y2="972.553" gradientUnits="userSpaceOnUse">
<stop stop-color="#E3F8FF"/>
<stop offset="0.624" stop-color="#EDFAFF"/>
</linearGradient>
<linearGradient id="paint5_linear_593_1263" x1="703.996" y1="901.559" x2="704.915" y2="970.553" gradientUnits="userSpaceOnUse">
<stop stop-color="#E3F8FF"/>
<stop offset="0.624" stop-color="#EDFAFF"/>
</linearGradient>
<linearGradient id="paint6_linear_593_1263" x1="879.996" y1="897.559" x2="880.915" y2="966.553" gradientUnits="userSpaceOnUse">
<stop stop-color="#E3F8FF"/>
<stop offset="0.624" stop-color="#EDFAFF"/>
</linearGradient>
<linearGradient id="paint7_linear_593_1263" x1="964.996" y1="890.559" x2="965.915" y2="959.553" gradientUnits="userSpaceOnUse">
<stop stop-color="#E3F8FF"/>
<stop offset="0.624" stop-color="#EDFAFF"/>
</linearGradient>
<linearGradient id="paint8_linear_593_1263" x1="1141" y1="891.559" x2="1141.92" y2="960.553" gradientUnits="userSpaceOnUse">
<stop stop-color="#E3F8FF"/>
<stop offset="0.624" stop-color="#EDFAFF"/>
</linearGradient>
<linearGradient id="paint9_linear_593_1263" x1="1396" y1="892.559" x2="1396.92" y2="961.553" gradientUnits="userSpaceOnUse">
<stop stop-color="#E3F8FF"/>
<stop offset="0.624" stop-color="#EDFAFF"/>
</linearGradient>
<linearGradient id="paint10_linear_593_1263" x1="534.996" y1="902.559" x2="535.915" y2="971.553" gradientUnits="userSpaceOnUse">
<stop stop-color="#E3F8FF"/>
<stop offset="0.624" stop-color="#EDFAFF"/>
</linearGradient>
<clipPath id="clip0_593_1263">
<rect width="1461" height="1046" fill="white"/>
</clipPath>
<clipPath id="clip1_593_1263">
<rect width="1461" height="688" fill="white" transform="translate(0 329)"/>
</clipPath>
<clipPath id="clip2_593_1263">
<rect width="211" height="85" fill="white" transform="translate(1307 443)"/>
</clipPath>
<clipPath id="clip3_593_1263">
<rect width="211" height="85" fill="white" transform="translate(-19 696)"/>
</clipPath>
<clipPath id="clip4_593_1263">
<rect width="211" height="85" fill="white" transform="translate(266 528)"/>
</clipPath>
<clipPath id="clip5_593_1263">
<rect width="211" height="85" fill="white" transform="translate(975 777)"/>
</clipPath>
<clipPath id="clip6_593_1263">
<rect width="211" height="85" fill="white" transform="translate(-129 409)"/>
</clipPath>
<clipPath id="clip7_593_1263">
<rect x="411" y="454" width="639" height="334" rx="52" fill="white"/>
</clipPath>
</defs>
</svg>
