<svg width="639" height="407" viewBox="0 0 639 407" fill="none" xmlns="http://www.w3.org/2000/svg">
<g clip-path="url(#clip0_1556_2120)">
<rect y="34" width="639" height="334" rx="52" fill="white"/>
<path d="M166 68H212V52L166 52V68Z" fill="#67D6FE"/>
<path d="M147 52L231 52V-17L147 -17V52Z" fill="#67D6FE"/>
<path d="M165.229 142.374C163.03 142.374 161.024 141.864 159.211 140.844C157.42 139.824 156.004 138.43 154.961 136.662C153.918 134.894 153.397 132.933 153.397 130.78C153.397 128.627 153.918 126.666 154.961 124.898C156.004 123.13 157.432 121.736 159.245 120.716C161.058 119.696 163.053 119.186 165.229 119.186C167.178 119.186 168.946 119.594 170.533 120.41C172.12 121.226 173.446 122.382 174.511 123.878L171.893 126.02C170.216 123.663 167.983 122.484 165.195 122.484C163.631 122.484 162.237 122.847 161.013 123.572C159.789 124.275 158.837 125.261 158.157 126.53C157.477 127.777 157.137 129.182 157.137 130.746C157.137 132.333 157.488 133.772 158.191 135.064C158.894 136.333 159.868 137.331 161.115 138.056C162.362 138.781 163.79 139.144 165.399 139.144C166.872 139.144 168.176 138.849 169.309 138.26C170.465 137.648 171.394 136.809 172.097 135.744V133.33H165.195V130.134H175.701V136.458C174.704 138.249 173.276 139.688 171.417 140.776C169.558 141.841 167.496 142.374 165.229 142.374ZM182.504 119.56H197.26V122.79H186.108V128.536H194.506V131.664H186.108V138.77H197.668V142H182.504V119.56ZM222.738 119.56V142.374H221.514L207.846 126.802V142H204.242V119.186H205.5L219.134 134.69V119.56H222.738ZM230.794 119.56H245.55V122.79H234.398V128.536H242.796V131.664H234.398V138.77H245.958V142H230.794V119.56ZM266.641 142L260.249 133.33H256.135V142H252.531V119.56H260.725C262.221 119.56 263.547 119.855 264.703 120.444C265.859 121.011 266.754 121.815 267.389 122.858C268.024 123.901 268.341 125.091 268.341 126.428C268.341 127.901 267.956 129.193 267.185 130.304C266.414 131.415 265.36 132.231 264.023 132.752L270.755 142H266.641ZM256.135 130.134H260.657C261.904 130.134 262.878 129.794 263.581 129.114C264.284 128.434 264.635 127.55 264.635 126.462C264.635 125.351 264.284 124.456 263.581 123.776C262.878 123.096 261.904 122.756 260.657 122.756H256.135V130.134ZM289.824 138.26H279.726L278.128 142H274.286L284.18 119.186H285.404L295.298 142H291.422L289.824 138.26ZM284.792 125.884L281.018 135.166H288.532L284.792 125.884ZM315.362 142L308.97 133.33H304.856V142H301.252V119.56H309.446C310.942 119.56 312.268 119.855 313.424 120.444C314.58 121.011 315.475 121.815 316.11 122.858C316.745 123.901 317.062 125.091 317.062 126.428C317.062 127.901 316.677 129.193 315.906 130.304C315.135 131.415 314.081 132.231 312.744 132.752L319.476 142H315.362ZM304.856 130.134H309.378C310.625 130.134 311.599 129.794 312.302 129.114C313.005 128.434 313.356 127.55 313.356 126.462C313.356 125.351 313.005 124.456 312.302 123.776C311.599 123.096 310.625 122.756 309.378 122.756H304.856V130.134ZM336.991 119.56H340.595V128.502H351.883V119.56H355.487V142H351.883V131.732H340.595V142H336.991V119.56ZM373.946 142.374C371.793 142.374 369.81 141.864 367.996 140.844C366.206 139.824 364.789 138.43 363.746 136.662C362.704 134.894 362.182 132.933 362.182 130.78C362.182 128.627 362.704 126.666 363.746 124.898C364.812 123.13 366.24 121.736 368.03 120.716C369.821 119.696 371.793 119.186 373.946 119.186C376.077 119.186 378.049 119.696 379.862 120.716C381.676 121.736 383.104 123.13 384.146 124.898C385.212 126.666 385.744 128.627 385.744 130.78C385.744 132.933 385.212 134.894 384.146 136.662C383.104 138.43 381.676 139.824 379.862 140.844C378.049 141.864 376.077 142.374 373.946 142.374ZM373.98 139.076C375.499 139.076 376.87 138.725 378.094 138.022C379.318 137.297 380.282 136.299 380.984 135.03C381.687 133.761 382.038 132.333 382.038 130.746C382.038 129.205 381.687 127.799 380.984 126.53C380.282 125.261 379.318 124.275 378.094 123.572C376.87 122.847 375.499 122.484 373.98 122.484C372.439 122.484 371.056 122.847 369.832 123.572C368.608 124.275 367.645 125.261 366.942 126.53C366.262 127.777 365.922 129.182 365.922 130.746C365.922 132.333 366.262 133.761 366.942 135.03C367.645 136.299 368.608 137.297 369.832 138.022C371.056 138.725 372.439 139.076 373.98 139.076ZM389.713 142V138.906C390.733 139.019 391.504 139.076 392.025 139.076C393.204 139.076 394.076 138.861 394.643 138.43C395.232 137.977 395.527 137.183 395.527 136.05V119.56H399.131V136.424C399.131 138.419 398.576 139.915 397.465 140.912C396.354 141.887 394.802 142.374 392.807 142.374C391.832 142.374 390.801 142.249 389.713 142ZM419.585 138.26H409.487L407.889 142H404.047L413.941 119.186H415.165L425.059 142H421.183L419.585 138.26ZM414.553 125.884L410.779 135.166H418.293L414.553 125.884ZM441.228 119.56H448.266C450.714 119.56 452.856 120.036 454.692 120.988C456.528 121.917 457.945 123.232 458.942 124.932C459.962 126.609 460.472 128.547 460.472 130.746C460.472 132.922 459.962 134.86 458.942 136.56C457.945 138.26 456.517 139.597 454.658 140.572C452.822 141.524 450.692 142 448.266 142H441.228V119.56ZM448.232 138.77C449.955 138.77 451.462 138.43 452.754 137.75C454.046 137.07 455.032 136.118 455.712 134.894C456.415 133.67 456.766 132.287 456.766 130.746C456.766 129.159 456.415 127.777 455.712 126.598C455.032 125.397 454.046 124.467 452.754 123.81C451.485 123.153 449.978 122.824 448.232 122.824H444.832V138.77H448.232ZM467.149 119.56H481.905V122.79H470.753V128.536H479.151V131.664H470.753V138.77H482.313V142H467.149V119.56ZM219.427 172.26H209.329L207.731 176H203.889L213.783 153.186H215.007L224.901 176H221.025L219.427 172.26ZM214.395 159.884L210.621 169.166H218.135L214.395 159.884ZM237.557 176.374C235.721 176.374 234.066 175.943 232.593 175.082C231.119 174.221 229.952 173.031 229.091 171.512L231.641 169.574C232.389 170.662 233.227 171.535 234.157 172.192C235.109 172.827 236.231 173.144 237.523 173.144C238.679 173.144 239.608 172.861 240.311 172.294C241.036 171.727 241.399 170.968 241.399 170.016C241.399 169.223 241.138 168.599 240.617 168.146C240.118 167.693 239.279 167.194 238.101 166.65L235.619 165.494C233.987 164.746 232.706 163.896 231.777 162.944C230.847 161.992 230.383 160.768 230.383 159.272C230.383 158.071 230.7 157.005 231.335 156.076C231.969 155.147 232.819 154.433 233.885 153.934C234.973 153.435 236.163 153.186 237.455 153.186C239.041 153.186 240.469 153.56 241.739 154.308C243.008 155.033 243.994 155.997 244.697 157.198L242.181 159.136C241.591 158.252 240.889 157.583 240.073 157.13C239.279 156.654 238.407 156.416 237.455 156.416C236.503 156.416 235.698 156.654 235.041 157.13C234.383 157.583 234.055 158.252 234.055 159.136C234.055 159.68 234.179 160.133 234.429 160.496C234.678 160.859 235.007 161.165 235.415 161.414C235.823 161.641 236.412 161.947 237.183 162.332L239.699 163.488C241.512 164.327 242.861 165.233 243.745 166.208C244.629 167.183 245.071 168.407 245.071 169.88C245.071 171.172 244.742 172.317 244.085 173.314C243.45 174.289 242.555 175.048 241.399 175.592C240.265 176.113 238.985 176.374 237.557 176.374ZM252.061 153.56H255.665V176H252.061V153.56ZM270.573 176.374C268.737 176.374 267.082 175.943 265.609 175.082C264.135 174.221 262.968 173.031 262.107 171.512L264.657 169.574C265.405 170.662 266.243 171.535 267.173 172.192C268.125 172.827 269.247 173.144 270.539 173.144C271.695 173.144 272.624 172.861 273.327 172.294C274.052 171.727 274.415 170.968 274.415 170.016C274.415 169.223 274.154 168.599 273.633 168.146C273.134 167.693 272.295 167.194 271.117 166.65L268.635 165.494C267.003 164.746 265.722 163.896 264.793 162.944C263.863 161.992 263.399 160.768 263.399 159.272C263.399 158.071 263.716 157.005 264.351 156.076C264.985 155.147 265.835 154.433 266.901 153.934C267.989 153.435 269.179 153.186 270.471 153.186C272.057 153.186 273.485 153.56 274.755 154.308C276.024 155.033 277.01 155.997 277.713 157.198L275.197 159.136C274.607 158.252 273.905 157.583 273.089 157.13C272.295 156.654 271.423 156.416 270.471 156.416C269.519 156.416 268.714 156.654 268.057 157.13C267.399 157.583 267.071 158.252 267.071 159.136C267.071 159.68 267.195 160.133 267.445 160.496C267.694 160.859 268.023 161.165 268.431 161.414C268.839 161.641 269.428 161.947 270.199 162.332L272.715 163.488C274.528 164.327 275.877 165.233 276.761 166.208C277.645 167.183 278.087 168.407 278.087 169.88C278.087 171.172 277.758 172.317 277.101 173.314C276.466 174.289 275.571 175.048 274.415 175.592C273.281 176.113 272.001 176.374 270.573 176.374ZM290.347 156.79H282.799V153.56H301.533V156.79H293.951V176H290.347V156.79ZM307.279 153.56H322.035V156.79H310.883V162.536H319.281V165.664H310.883V172.77H322.443V176H307.279V153.56ZM347.512 153.56V176.374H346.288L332.62 160.802V176H329.016V153.186H330.274L343.908 168.69V153.56H347.512ZM366.006 176.374C363.853 176.374 361.87 175.864 360.056 174.844C358.266 173.824 356.838 172.43 355.772 170.662C354.73 168.894 354.208 166.933 354.208 164.78C354.208 162.627 354.73 160.666 355.772 158.898C356.838 157.13 358.266 155.736 360.056 154.716C361.87 153.696 363.853 153.186 366.006 153.186C368.069 153.186 369.939 153.651 371.616 154.58C373.316 155.509 374.654 156.767 375.628 158.354L372.908 160.36C372.115 159.113 371.14 158.161 369.984 157.504C368.828 156.824 367.514 156.484 366.04 156.484C364.522 156.484 363.139 156.847 361.892 157.572C360.668 158.275 359.705 159.261 359.002 160.53C358.3 161.799 357.948 163.216 357.948 164.78C357.948 166.344 358.3 167.761 359.002 169.03C359.705 170.299 360.668 171.297 361.892 172.022C363.139 172.725 364.522 173.076 366.04 173.076C367.514 173.076 368.828 172.747 369.984 172.09C371.14 171.41 372.115 170.447 372.908 169.2L375.628 171.206C374.676 172.793 373.35 174.051 371.65 174.98C369.973 175.909 368.092 176.374 366.006 176.374ZM382.319 153.56H385.923V176H382.319V153.56ZM407.427 172.26H397.329L395.731 176H391.889L401.783 153.186H403.007L412.901 176H409.025L407.427 172.26ZM402.395 159.884L398.621 169.166H406.135L402.395 159.884ZM425.557 176.374C423.721 176.374 422.066 175.943 420.593 175.082C419.119 174.221 417.952 173.031 417.091 171.512L419.641 169.574C420.389 170.662 421.227 171.535 422.157 172.192C423.109 172.827 424.231 173.144 425.523 173.144C426.679 173.144 427.608 172.861 428.311 172.294C429.036 171.727 429.399 170.968 429.399 170.016C429.399 169.223 429.138 168.599 428.617 168.146C428.118 167.693 427.279 167.194 426.101 166.65L423.619 165.494C421.987 164.746 420.706 163.896 419.777 162.944C418.847 161.992 418.383 160.768 418.383 159.272C418.383 158.071 418.7 157.005 419.335 156.076C419.969 155.147 420.819 154.433 421.885 153.934C422.973 153.435 424.163 153.186 425.455 153.186C427.041 153.186 428.469 153.56 429.739 154.308C431.008 155.033 431.994 155.997 432.697 157.198L430.181 159.136C429.591 158.252 428.889 157.583 428.073 157.13C427.279 156.654 426.407 156.416 425.455 156.416C424.503 156.416 423.698 156.654 423.041 157.13C422.383 157.583 422.055 158.252 422.055 159.136C422.055 159.68 422.179 160.133 422.429 160.496C422.678 160.859 423.007 161.165 423.415 161.414C423.823 161.641 424.412 161.947 425.183 162.332L427.699 163.488C429.512 164.327 430.861 165.233 431.745 166.208C432.629 167.183 433.071 168.407 433.071 169.88C433.071 171.172 432.742 172.317 432.085 173.314C431.45 174.289 430.555 175.048 429.399 175.592C428.265 176.113 426.985 176.374 425.557 176.374Z" fill="black"/>
<rect width="412" height="4" transform="translate(113 201)" fill="url(#paint0_linear_1556_2120)"/>
</g>
<path d="M128 0H82V16H128V0Z" fill="white"/>
<path d="M147 16H63V85H147V16Z" fill="white"/>
<path d="M466 407H512V391H466V407Z" fill="white"/>
<path d="M447 391H531V322H447V391Z" fill="white"/>
<path d="M540 407H586V391H540V407Z" fill="white"/>
<path d="M521 391H605V322H521V391Z" fill="white"/>
<defs>
<linearGradient id="paint0_linear_1556_2120" x1="0" y1="2" x2="412" y2="2" gradientUnits="userSpaceOnUse">
<stop offset="0.25" stop-color="#FFDF62"/>
<stop offset="0.25" stop-color="#C5F06F"/>
<stop offset="0.5" stop-color="#C5F06F"/>
<stop offset="0.5" stop-color="#42CDFF"/>
<stop offset="0.75" stop-color="#42CDFF"/>
<stop offset="0.75" stop-color="#F75E63"/>
</linearGradient>
<clipPath id="clip0_1556_2120">
<rect y="34" width="639" height="334" rx="52" fill="white"/>
</clipPath>
</defs>
</svg>
