<svg width="1461" height="743" viewBox="0 0 1461 743" fill="none" xmlns="http://www.w3.org/2000/svg">
<g clip-path="url(#clip0_294_846)">
<rect width="1461" height="688" transform="translate(0.00012207 55)" fill="url(#paint0_linear_294_846)"/>
<path d="M974.842 106.641L1020.84 106.184L1020.68 90.1851L974.684 90.6414L974.842 106.641Z" fill="white"/>
<path d="M955.685 90.8299L1039.68 89.9966L1039 21L955 21.8333L955.685 90.8299Z" fill="white"/>
<path d="M818 608H772V624H818V608Z" fill="white"/>
<path d="M837 624H753V727H837V624Z" fill="white"/>
<path d="M1246 606H1200V622H1246V606Z" fill="white"/>
<path d="M1265 622H1181V725H1265V622Z" fill="white"/>
<path d="M1078 608H1032V624H1078V608Z" fill="white"/>
<path d="M1097 624H1013V727H1097V624Z" fill="white"/>
<path d="M1330 606H1284V622H1330V606Z" fill="white"/>
<path d="M1349 622H1265V725H1349V622Z" fill="white"/>
<g opacity="0.55" clip-path="url(#clip1_294_846)">
<path d="M1367.5 169H1321.5V185H1367.5V169Z" fill="#F75E63"/>
<path d="M1435.5 169H1389.5V185H1435.5V169Z" fill="#F75E63"/>
<path d="M1503.5 169H1457.5V185H1503.5V169Z" fill="#F75E63"/>
<path d="M1539 185H1286V254H1539V185Z" fill="#F75E63"/>
</g>
<g opacity="0.55" clip-path="url(#clip2_294_846)">
<path d="M41.5001 422H-4.49988V438H41.5001V422Z" fill="#C5F06F"/>
<path d="M109.5 422H63.5001V438H109.5V422Z" fill="#C5F06F"/>
<path d="M177.5 422H131.5V438H177.5V422Z" fill="#C5F06F"/>
<path d="M213 438H-39.9999V507H213V438Z" fill="#C5F06F"/>
</g>
<g opacity="0.55" clip-path="url(#clip3_294_846)">
<path d="M326.5 254H280.5V270H326.5V254Z" fill="#FFE57E"/>
<path d="M394.5 254H348.5V270H394.5V254Z" fill="#FFE57E"/>
<path d="M462.5 254H416.5V270H462.5V254Z" fill="#FFE57E"/>
<path d="M498 270H245V339H498V270Z" fill="#FFE57E"/>
</g>
<g opacity="0.55" clip-path="url(#clip4_294_846)">
<path d="M1035.5 503H989.5V519H1035.5V503Z" fill="#42CDFF"/>
<path d="M1103.5 503H1057.5V519H1103.5V503Z" fill="#42CDFF"/>
<path d="M1171.5 503H1125.5V519H1171.5V503Z" fill="#42CDFF"/>
<path d="M1207 519H954V588H1207V519Z" fill="#42CDFF"/>
</g>
<g opacity="0.55" clip-path="url(#clip5_294_846)">
<path d="M67.5001 135H21.5001V151H67.5001V135Z" fill="#F75E63"/>
<path d="M103 151H-150V220H103V151Z" fill="#F75E63"/>
</g>
</g>
<path d="M65.0001 12H19.0001V28H65.0001V12Z" fill="#65D5FD"/>
<path d="M84.0001 28H0.00012207V97H84.0001V28Z" fill="#65D5FD"/>
<path d="M20.1304 716.858L66.1263 716.245L65.9133 700.247L19.9173 700.86L20.1304 716.858Z" fill="#EDFAFF"/>
<path d="M0.918949 701.113L84.9115 699.994L83.9925 631L-8.25617e-06 632.119L0.918949 701.113Z" fill="url(#paint1_linear_294_846)"/>
<path d="M272.13 715.858L318.126 715.245L317.913 699.247L271.917 699.86L272.13 715.858Z" fill="#EDFAFF"/>
<path d="M252.919 700.113L336.911 698.994L335.993 630L252 631.119L252.919 700.113Z" fill="url(#paint2_linear_294_846)"/>
<path d="M355.13 714.858L401.126 714.245L400.913 698.247L354.917 698.86L355.13 714.858Z" fill="#EDFAFF"/>
<path d="M335.919 699.113L419.911 697.994L418.993 629L335 630.119L335.919 699.113Z" fill="url(#paint3_linear_294_846)"/>
<path d="M430.13 714.858L476.126 714.245L475.913 698.247L429.917 698.86L430.13 714.858Z" fill="#EDFAFF"/>
<path d="M410.919 699.113L494.911 697.994L493.993 629L410 630.119L410.919 699.113Z" fill="url(#paint4_linear_294_846)"/>
<path d="M682.13 712.858L728.126 712.245L727.913 696.247L681.917 696.86L682.13 712.858Z" fill="#EDFAFF"/>
<path d="M662.919 697.113L746.911 695.994L745.992 627L662 628.119L662.919 697.113Z" fill="url(#paint5_linear_294_846)"/>
<path d="M858.13 708.858L904.126 708.245L903.913 692.247L857.917 692.86L858.13 708.858Z" fill="#EDFAFF"/>
<path d="M838.919 693.113L922.911 691.994L921.993 623L838 624.119L838.919 693.113Z" fill="url(#paint6_linear_294_846)"/>
<path d="M943.13 701.858L989.126 701.245L988.913 685.247L942.917 685.86L943.13 701.858Z" fill="#EDFAFF"/>
<path d="M923.919 686.113L1007.91 684.994L1006.99 616L923 617.119L923.919 686.113Z" fill="url(#paint7_linear_294_846)"/>
<path d="M1119.13 702.858L1165.13 702.245L1164.91 686.247L1118.92 686.86L1119.13 702.858Z" fill="#EDFAFF"/>
<path d="M1099.92 687.113L1183.91 685.994L1182.99 617L1099 618.119L1099.92 687.113Z" fill="url(#paint8_linear_294_846)"/>
<path d="M1374.13 703.858L1420.13 703.245L1419.91 687.247L1373.92 687.86L1374.13 703.858Z" fill="#EDFAFF"/>
<path d="M1354.92 688.113L1438.91 686.994L1437.99 618L1354 619.119L1354.92 688.113Z" fill="url(#paint9_linear_294_846)"/>
<path d="M513.13 713.858L559.126 713.245L558.913 697.247L512.917 697.86L513.13 713.858Z" fill="#EDFAFF"/>
<path d="M493.919 698.113L577.911 696.994L576.992 628L493 629.119L493.919 698.113Z" fill="url(#paint10_linear_294_846)"/>
<path d="M150 615H104V631H150V615Z" fill="white"/>
<path d="M169 631H85.0001V734H169V631Z" fill="white"/>
<path d="M643 611H597V627H643V611Z" fill="white"/>
<path d="M662 627H578V742H662V627Z" fill="white"/>
<path d="M234 615H188V631H234V615Z" fill="white"/>
<path d="M253 631H169V734H253V631Z" fill="white"/>
<path d="M495 0H449V16H495V0Z" fill="#65D5FD"/>
<path d="M514 16H430V85H514V16Z" fill="#65D5FD"/>
<path d="M579 0H533V16H579V0Z" fill="#65D5FD"/>
<path d="M598 16H514V85H598V16Z" fill="#65D5FD"/>
<path d="M904 0H858V16H904V0Z" fill="#65D5FD"/>
<path d="M923 16H839V85H923V16Z" fill="#65D5FD"/>
<path d="M1442 12H1396V28H1442V12Z" fill="#65D5FD"/>
<path d="M1461 28H1377V97H1461V28Z" fill="#65D5FD"/>
<path d="M1358 12H1312V28H1358V12Z" fill="#65D5FD"/>
<path d="M1377 28H1293V97H1377V28Z" fill="#65D5FD"/>
<path d="M103.842 107.641L149.84 107.184L149.681 91.1851L103.684 91.6414L103.842 107.641Z" fill="white"/>
<path d="M84.6847 91.8299L168.681 90.9966L167.996 22L84.0002 22.8333L84.6847 91.8299Z" fill="white"/>
<defs>
<linearGradient id="paint0_linear_294_846" x1="730.5" y1="0" x2="730.5" y2="688" gradientUnits="userSpaceOnUse">
<stop offset="0.104" stop-color="#65D5FD"/>
<stop offset="0.994" stop-color="white"/>
</linearGradient>
<linearGradient id="paint1_linear_294_846" x1="41.9963" y1="631.559" x2="42.9152" y2="700.553" gradientUnits="userSpaceOnUse">
<stop stop-color="#E3F8FF"/>
<stop offset="0.624" stop-color="#EDFAFF"/>
</linearGradient>
<linearGradient id="paint2_linear_294_846" x1="293.996" y1="630.559" x2="294.915" y2="699.553" gradientUnits="userSpaceOnUse">
<stop stop-color="#E3F8FF"/>
<stop offset="0.624" stop-color="#EDFAFF"/>
</linearGradient>
<linearGradient id="paint3_linear_294_846" x1="376.996" y1="629.559" x2="377.915" y2="698.553" gradientUnits="userSpaceOnUse">
<stop stop-color="#E3F8FF"/>
<stop offset="0.624" stop-color="#EDFAFF"/>
</linearGradient>
<linearGradient id="paint4_linear_294_846" x1="451.996" y1="629.559" x2="452.915" y2="698.553" gradientUnits="userSpaceOnUse">
<stop stop-color="#E3F8FF"/>
<stop offset="0.624" stop-color="#EDFAFF"/>
</linearGradient>
<linearGradient id="paint5_linear_294_846" x1="703.996" y1="627.559" x2="704.915" y2="696.553" gradientUnits="userSpaceOnUse">
<stop stop-color="#E3F8FF"/>
<stop offset="0.624" stop-color="#EDFAFF"/>
</linearGradient>
<linearGradient id="paint6_linear_294_846" x1="879.996" y1="623.559" x2="880.915" y2="692.553" gradientUnits="userSpaceOnUse">
<stop stop-color="#E3F8FF"/>
<stop offset="0.624" stop-color="#EDFAFF"/>
</linearGradient>
<linearGradient id="paint7_linear_294_846" x1="964.996" y1="616.559" x2="965.915" y2="685.553" gradientUnits="userSpaceOnUse">
<stop stop-color="#E3F8FF"/>
<stop offset="0.624" stop-color="#EDFAFF"/>
</linearGradient>
<linearGradient id="paint8_linear_294_846" x1="1141" y1="617.559" x2="1141.92" y2="686.553" gradientUnits="userSpaceOnUse">
<stop stop-color="#E3F8FF"/>
<stop offset="0.624" stop-color="#EDFAFF"/>
</linearGradient>
<linearGradient id="paint9_linear_294_846" x1="1396" y1="618.559" x2="1396.92" y2="687.553" gradientUnits="userSpaceOnUse">
<stop stop-color="#E3F8FF"/>
<stop offset="0.624" stop-color="#EDFAFF"/>
</linearGradient>
<linearGradient id="paint10_linear_294_846" x1="534.996" y1="628.559" x2="535.915" y2="697.553" gradientUnits="userSpaceOnUse">
<stop stop-color="#E3F8FF"/>
<stop offset="0.624" stop-color="#EDFAFF"/>
</linearGradient>
<clipPath id="clip0_294_846">
<rect width="1461" height="688" fill="white" transform="translate(0.00012207 55)"/>
</clipPath>
<clipPath id="clip1_294_846">
<rect width="211" height="85" fill="white" transform="translate(1307 169)"/>
</clipPath>
<clipPath id="clip2_294_846">
<rect width="211" height="85" fill="white" transform="translate(-18.9999 422)"/>
</clipPath>
<clipPath id="clip3_294_846">
<rect width="211" height="85" fill="white" transform="translate(266 254)"/>
</clipPath>
<clipPath id="clip4_294_846">
<rect width="211" height="85" fill="white" transform="translate(975 503)"/>
</clipPath>
<clipPath id="clip5_294_846">
<rect width="211" height="85" fill="white" transform="translate(-129 135)"/>
</clipPath>
</defs>
</svg>
