<svg width="208" height="295" viewBox="0 0 208 295" fill="none" xmlns="http://www.w3.org/2000/svg">
<path d="M173.998 201.371C171.393 200.785 169.052 199.468 166.975 197.419C164.916 195.381 163.515 192.844 162.772 189.809C161.532 184.74 161.943 180.336 164.004 176.599C166.081 172.857 169.699 170.355 174.859 169.093C180.187 167.789 184.811 168.25 188.734 170.476C192.675 172.712 195.235 176.236 196.412 181.048C197.258 184.508 197.184 187.558 196.189 190.199C195.214 192.85 193.523 195.114 191.119 196.989L187.09 191.074C188.562 189.925 189.52 188.678 189.962 187.331C190.424 185.995 190.445 184.47 190.025 182.755C189.409 180.236 187.9 178.409 185.499 177.275C183.114 176.138 180.373 175.948 177.277 176.705C174.014 177.503 171.706 178.953 170.354 181.053C169.002 183.153 168.675 185.63 169.373 188.483C169.759 190.062 170.461 191.354 171.479 192.359C172.498 193.365 173.8 194.02 175.386 194.323L173.998 201.371Z" fill="#FFD502"/>
<rect x="161.99" y="152.076" width="20.209" height="24.587" transform="rotate(-11.3595 161.99 152.076)" fill="#FFD502"/>
<path d="M34.3296 201.371C36.9339 200.785 39.275 199.468 41.3528 197.419C43.4117 195.381 44.8125 192.844 45.5552 189.809C46.7954 184.74 46.3848 180.336 44.3234 176.599C42.2468 172.857 38.6284 170.355 33.4681 169.093C28.1408 167.789 23.516 168.25 19.5935 170.476C15.6521 172.712 13.0928 176.236 11.9157 181.048C11.0691 184.508 11.1432 187.558 12.138 190.199C13.1139 192.85 14.8041 195.114 17.2086 196.989L21.2376 191.074C19.7652 189.925 18.8077 188.678 18.3651 187.331C17.9036 185.995 17.8827 184.47 18.3023 182.755C18.9187 180.236 20.4273 178.409 22.828 177.275C25.2136 176.138 27.9545 175.948 31.0506 176.705C34.3138 177.503 36.6214 178.953 37.9735 181.053C39.3256 183.153 39.6526 185.63 38.9545 188.483C38.5683 190.062 37.8661 191.354 36.848 192.359C35.8298 193.365 34.5276 194.02 32.9412 194.323L34.3296 201.371Z" fill="#FFD502"/>
<rect width="20.209" height="24.587" transform="matrix(-0.980411 -0.196965 -0.196965 0.980411 46.3372 152.076)" fill="#FFD502"/>
<path d="M49 294.5L54 174.5H105V237H99.5V294.5H49Z" fill="#005C99" stroke="#005C99" stroke-linecap="round" stroke-linejoin="round"/>
<path d="M161 294.5L156 174.5H105V237H110.5V294.5H161Z" fill="#005C99" stroke="#005C99" stroke-linecap="round" stroke-linejoin="round"/>
<path d="M158.69 121H179.23L185.193 156.709C180.396 156.232 176.556 156.378 173.017 157.413C169.727 158.375 166.8 160.075 163.661 162.572L158.69 121Z" fill="#FAFAFA" stroke="#CBCCCC" stroke-width="3"/>
<path d="M180.799 119.5C172.401 98.1511 169.648 83.0914 149.023 78.5L147.5 80.3851L156.131 119.5H180.799Z" fill="#1D1F3A" stroke="#1D1F3A" stroke-linejoin="round"/>
<path d="M50.31 120.5H29.7703L23.8071 156.209C28.6041 155.732 32.4437 155.878 35.9828 156.913C39.2726 157.875 42.2004 159.575 45.3394 162.072L50.31 120.5Z" fill="#FAFAFA" stroke="#CBCCCC" stroke-width="3"/>
<path d="M27.2005 119C35.5989 97.6511 38.352 82.5914 58.9769 78L60.5 79.8851L51.8692 119H27.2005Z" fill="#1D1F3A" stroke="#1D1F3A" stroke-linejoin="round"/>
<rect x="81" y="69" width="46" height="7" fill="#FEC00F"/>
<rect x="67" y="5" width="73" height="64" rx="14" fill="#FFD400"/>
<path d="M94 50C101.425 52.6226 105.576 52.7104 113 50" stroke="black" stroke-width="3" stroke-linecap="round" stroke-linejoin="round"/>
<path d="M63.6004 76H104.25V175H46.25C49.3903 137.89 52.3618 117.036 60.1303 79.6474C60.1303 79.6474 60.6261 77.5632 61.1218 77.0421C61.6175 76.5211 63.6004 76 63.6004 76Z" fill="#20223F" stroke="#20223F"/>
<path d="M145.65 76H105V175H163C159.86 137.89 156.888 117.036 149.12 79.6474C149.12 79.6474 148.624 77.5632 148.128 77.0421C147.632 76.5211 145.65 76 145.65 76Z" fill="#20223F" stroke="#20223F"/>
<circle cx="94" cy="36" r="4" fill="black"/>
<circle cx="114" cy="36" r="4" fill="black"/>
<rect x="91" width="25" height="8" rx="2" fill="#FFD400"/>
</svg>
