<svg width="1461" height="1026" viewBox="0 0 1461 1026" fill="none" xmlns="http://www.w3.org/2000/svg">
<g opacity="0.17">
<rect x="-67.5" y="-1" width="266" height="114" stroke="black" stroke-opacity="0.02" stroke-width="2"/>
<g clip-path="url(#clip0_533_1397)">
<path d="M21 13H-25V29H21V13Z" fill="#F75E63"/>
<path d="M89 13H43V29H89V13Z" fill="#F75E63"/>
<path d="M157 13H111V29H157V13Z" fill="#F75E63"/>
<path d="M192.5 29H-60.5V98H192.5V29Z" fill="#F75E63"/>
</g>
<rect x="-67.5" y="113" width="266" height="114" stroke="black" stroke-opacity="0.02" stroke-width="2"/>
<rect x="-67.5" y="227" width="266" height="114" stroke="black" stroke-opacity="0.02" stroke-width="2"/>
<rect x="-67.5" y="341" width="266" height="114" stroke="black" stroke-opacity="0.02" stroke-width="2"/>
<g clip-path="url(#clip1_533_1397)">
<path d="M21 355H-25V371H21V355Z" fill="#42CDFF"/>
<path d="M89 355H43V371H89V355Z" fill="#42CDFF"/>
<path d="M157 355H111V371H157V355Z" fill="#42CDFF"/>
<path d="M192.5 371H-60.5V440H192.5V371Z" fill="#42CDFF"/>
</g>
<rect x="-67.5" y="455" width="266" height="114" stroke="black" stroke-opacity="0.02" stroke-width="2"/>
<rect x="-67.5" y="569" width="266" height="114" stroke="black" stroke-opacity="0.02" stroke-width="2"/>
<rect x="-67.5" y="683" width="266" height="114" stroke="black" stroke-opacity="0.02" stroke-width="2"/>
<g clip-path="url(#clip2_533_1397)">
<path d="M21 697H-25V713H21V697Z" fill="#FFE57E"/>
<path d="M89 697H43V713H89V697Z" fill="#FFE57E"/>
<path d="M157 697H111V713H157V697Z" fill="#FFE57E"/>
<path d="M192.5 713H-60.5V782H192.5V713Z" fill="#FFE57E"/>
</g>
<rect x="-67.5" y="797" width="266" height="114" stroke="black" stroke-opacity="0.02" stroke-width="2"/>
<rect x="-67.5" y="911" width="266" height="114" stroke="black" stroke-opacity="0.02" stroke-width="2"/>
<g clip-path="url(#clip3_533_1397)">
<path d="M21 925H-25V941H21V925Z" fill="#C5F06F"/>
<path d="M89 925H43V941H89V925Z" fill="#C5F06F"/>
<path d="M157 925H111V941H157V925Z" fill="#C5F06F"/>
<path d="M192.5 941H-60.5V1010H192.5V941Z" fill="#C5F06F"/>
</g>
<rect x="198.5" y="-1" width="266" height="114" stroke="black" stroke-opacity="0.02" stroke-width="2"/>
<rect x="198.5" y="113" width="266" height="114" stroke="black" stroke-opacity="0.02" stroke-width="2"/>
<rect x="198.5" y="227" width="266" height="114" stroke="black" stroke-opacity="0.02" stroke-width="2"/>
<rect x="198.5" y="341" width="266" height="114" stroke="black" stroke-opacity="0.02" stroke-width="2"/>
<rect x="198.5" y="455" width="266" height="114" stroke="black" stroke-opacity="0.02" stroke-width="2"/>
<rect x="198.5" y="569" width="266" height="114" stroke="black" stroke-opacity="0.02" stroke-width="2"/>
<rect x="198.5" y="683" width="266" height="114" stroke="black" stroke-opacity="0.02" stroke-width="2"/>
<rect x="198.5" y="797" width="266" height="114" stroke="black" stroke-opacity="0.02" stroke-width="2"/>
<g clip-path="url(#clip4_533_1397)">
<path d="M287 811H241V827H287V811Z" fill="#F75E63"/>
<path d="M355 811H309V827H355V811Z" fill="#F75E63"/>
<path d="M423 811H377V827H423V811Z" fill="#F75E63"/>
<path d="M458.5 827H205.5V896H458.5V827Z" fill="#F75E63"/>
</g>
<rect x="198.5" y="911" width="266" height="114" stroke="black" stroke-opacity="0.02" stroke-width="2"/>
<rect x="464.5" y="-1" width="266" height="114" stroke="black" stroke-opacity="0.02" stroke-width="2"/>
<rect x="464.5" y="113" width="266" height="114" stroke="black" stroke-opacity="0.02" stroke-width="2"/>
<g clip-path="url(#clip5_533_1397)">
<path d="M553 127H507V143H553V127Z" fill="#FFE57E"/>
<path d="M621 127H575V143H621V127Z" fill="#FFE57E"/>
<path d="M689 127H643V143H689V127Z" fill="#FFE57E"/>
<path d="M724.5 143H471.5V212H724.5V143Z" fill="#FFE57E"/>
</g>
<rect x="464.5" y="227" width="266" height="114" stroke="black" stroke-opacity="0.02" stroke-width="2"/>
<rect x="464.5" y="341" width="266" height="114" stroke="black" stroke-opacity="0.02" stroke-width="2"/>
<rect x="464.5" y="455" width="266" height="114" stroke="black" stroke-opacity="0.02" stroke-width="2"/>
<rect x="464.5" y="569" width="266" height="114" stroke="black" stroke-opacity="0.02" stroke-width="2"/>
<rect x="464.5" y="683" width="266" height="114" stroke="black" stroke-opacity="0.02" stroke-width="2"/>
<rect x="464.5" y="797" width="266" height="114" stroke="black" stroke-opacity="0.02" stroke-width="2"/>
<rect x="464.5" y="911" width="266" height="114" stroke="black" stroke-opacity="0.02" stroke-width="2"/>
<g clip-path="url(#clip6_533_1397)">
<path d="M553 925H507V941H553V925Z" fill="#42CDFF"/>
<path d="M621 925H575V941H621V925Z" fill="#42CDFF"/>
<path d="M689 925H643V941H689V925Z" fill="#42CDFF"/>
<path d="M724.5 941H471.5V1010H724.5V941Z" fill="#42CDFF"/>
</g>
<rect x="730.5" y="-1" width="266" height="114" stroke="black" stroke-opacity="0.02" stroke-width="2"/>
<rect x="730.5" y="113" width="266" height="114" stroke="black" stroke-opacity="0.02" stroke-width="2"/>
<rect x="730.5" y="227" width="266" height="114" stroke="black" stroke-opacity="0.02" stroke-width="2"/>
<rect x="730.5" y="341" width="266" height="114" stroke="black" stroke-opacity="0.02" stroke-width="2"/>
<rect x="730.5" y="455" width="266" height="114" stroke="black" stroke-opacity="0.02" stroke-width="2"/>
<rect x="730.5" y="569" width="266" height="114" stroke="black" stroke-opacity="0.02" stroke-width="2"/>
<rect x="730.5" y="683" width="266" height="114" stroke="black" stroke-opacity="0.02" stroke-width="2"/>
<rect x="730.5" y="797" width="266" height="114" stroke="black" stroke-opacity="0.02" stroke-width="2"/>
<rect x="730.5" y="911" width="266" height="114" stroke="black" stroke-opacity="0.02" stroke-width="2"/>
<rect x="996.5" y="-1" width="266" height="114" stroke="black" stroke-opacity="0.02" stroke-width="2"/>
<rect x="996.5" y="113" width="266" height="114" stroke="black" stroke-opacity="0.02" stroke-width="2"/>
<rect x="996.5" y="227" width="266" height="114" stroke="black" stroke-opacity="0.02" stroke-width="2"/>
<g clip-path="url(#clip7_533_1397)">
<path d="M1085 241H1039V257H1085V241Z" fill="#F75E63"/>
<path d="M1153 241H1107V257H1153V241Z" fill="#F75E63"/>
<path d="M1221 241H1175V257H1221V241Z" fill="#F75E63"/>
<path d="M1256.5 257H1003.5V326H1256.5V257Z" fill="#F75E63"/>
</g>
<rect x="996.5" y="341" width="266" height="114" stroke="black" stroke-opacity="0.02" stroke-width="2"/>
<rect x="996.5" y="455" width="266" height="114" stroke="black" stroke-opacity="0.02" stroke-width="2"/>
<rect x="996.5" y="569" width="266" height="114" stroke="black" stroke-opacity="0.02" stroke-width="2"/>
<rect x="996.5" y="683" width="266" height="114" stroke="black" stroke-opacity="0.02" stroke-width="2"/>
<g clip-path="url(#clip8_533_1397)">
<path d="M1085 697H1039V713H1085V697Z" fill="#FFE57E"/>
<path d="M1153 697H1107V713H1153V697Z" fill="#FFE57E"/>
<path d="M1221 697H1175V713H1221V697Z" fill="#FFE57E"/>
<path d="M1256.5 713H1003.5V782H1256.5V713Z" fill="#FFE57E"/>
</g>
<rect x="996.5" y="797" width="266" height="114" stroke="black" stroke-opacity="0.02" stroke-width="2"/>
<rect x="996.5" y="911" width="266" height="114" stroke="black" stroke-opacity="0.02" stroke-width="2"/>
<rect x="1262.5" y="-1" width="266" height="114" stroke="black" stroke-opacity="0.02" stroke-width="2"/>
<g clip-path="url(#clip9_533_1397)">
<path d="M1351 13H1305V29H1351V13Z" fill="#FFE57E"/>
<path d="M1419 13H1373V29H1419V13Z" fill="#FFE57E"/>
<path d="M1487 13H1441V29H1487V13Z" fill="#FFE57E"/>
<path d="M1522.5 29H1269.5V98H1522.5V29Z" fill="#FFE57E"/>
</g>
<rect x="1262.5" y="113" width="266" height="114" stroke="black" stroke-opacity="0.02" stroke-width="2"/>
<rect x="1262.5" y="227" width="266" height="114" stroke="black" stroke-opacity="0.02" stroke-width="2"/>
<g clip-path="url(#clip10_533_1397)">
<path d="M1351 241H1305V257H1351V241Z" fill="#C5F06F"/>
<path d="M1419 241H1373V257H1419V241Z" fill="#C5F06F"/>
<path d="M1487 241H1441V257H1487V241Z" fill="#C5F06F"/>
<path d="M1522.5 257H1269.5V326H1522.5V257Z" fill="#C5F06F"/>
</g>
<rect x="1262.5" y="341" width="266" height="114" stroke="black" stroke-opacity="0.02" stroke-width="2"/>
<g clip-path="url(#clip11_533_1397)">
<path d="M1351 355H1305V371H1351V355Z" fill="#42CDFF"/>
<path d="M1419 355H1373V371H1419V355Z" fill="#42CDFF"/>
<path d="M1487 355H1441V371H1487V355Z" fill="#42CDFF"/>
<path d="M1522.5 371H1269.5V440H1522.5V371Z" fill="#42CDFF"/>
</g>
<rect x="1262.5" y="455" width="266" height="114" stroke="black" stroke-opacity="0.02" stroke-width="2"/>
<rect x="1262.5" y="569" width="266" height="114" stroke="black" stroke-opacity="0.02" stroke-width="2"/>
<rect x="1262.5" y="683" width="266" height="114" stroke="black" stroke-opacity="0.02" stroke-width="2"/>
<rect x="1262.5" y="797" width="266" height="114" stroke="black" stroke-opacity="0.02" stroke-width="2"/>
<g clip-path="url(#clip12_533_1397)">
<path d="M1351 811H1305V827H1351V811Z" fill="#F75E63"/>
<path d="M1419 811H1373V827H1419V811Z" fill="#F75E63"/>
<path d="M1487 811H1441V827H1487V811Z" fill="#F75E63"/>
<path d="M1522.5 827H1269.5V896H1522.5V827Z" fill="#F75E63"/>
</g>
<rect x="1262.5" y="911" width="266" height="114" stroke="black" stroke-opacity="0.02" stroke-width="2"/>
</g>
<defs>
<clipPath id="clip0_533_1397">
<rect width="211" height="85" fill="white" transform="translate(-39.5 13)"/>
</clipPath>
<clipPath id="clip1_533_1397">
<rect width="211" height="85" fill="white" transform="translate(-39.5 355)"/>
</clipPath>
<clipPath id="clip2_533_1397">
<rect width="211" height="85" fill="white" transform="translate(-39.5 697)"/>
</clipPath>
<clipPath id="clip3_533_1397">
<rect width="211" height="85" fill="white" transform="translate(-39.5 925)"/>
</clipPath>
<clipPath id="clip4_533_1397">
<rect width="211" height="85" fill="white" transform="translate(226.5 811)"/>
</clipPath>
<clipPath id="clip5_533_1397">
<rect width="211" height="85" fill="white" transform="translate(492.5 127)"/>
</clipPath>
<clipPath id="clip6_533_1397">
<rect width="211" height="85" fill="white" transform="translate(492.5 925)"/>
</clipPath>
<clipPath id="clip7_533_1397">
<rect width="211" height="85" fill="white" transform="translate(1024.5 241)"/>
</clipPath>
<clipPath id="clip8_533_1397">
<rect width="211" height="85" fill="white" transform="translate(1024.5 697)"/>
</clipPath>
<clipPath id="clip9_533_1397">
<rect width="211" height="85" fill="white" transform="translate(1290.5 13)"/>
</clipPath>
<clipPath id="clip10_533_1397">
<rect width="211" height="85" fill="white" transform="translate(1290.5 241)"/>
</clipPath>
<clipPath id="clip11_533_1397">
<rect width="211" height="85" fill="white" transform="translate(1290.5 355)"/>
</clipPath>
<clipPath id="clip12_533_1397">
<rect width="211" height="85" fill="white" transform="translate(1290.5 811)"/>
</clipPath>
</defs>
</svg>
