<svg width="123" height="98" viewBox="0 0 123 98" fill="none" xmlns="http://www.w3.org/2000/svg">
<g clip-path="url(#clip0_230_1911)">
<path d="M122.4 23.8611L65.5688 47.3971V97.233L122.818 74.1985L122.4 23.8611Z" fill="#FFCB39"/>
<path d="M122.4 23.8611L57.7359 3.44971L0.52832 28.0862L65.569 47.3971L122.4 23.8611Z" fill="#FFDF62"/>
<path d="M65.7672 30.0491C73.6886 30.0491 80.1101 28.7737 80.1101 27.2004C80.1101 25.6272 73.6886 24.3518 65.7672 24.3518C57.8459 24.3518 51.4243 25.6272 51.4243 27.2004C51.4243 28.7737 57.8459 30.0491 65.7672 30.0491Z" fill="#FFDF62"/>
<path d="M51.4243 27.2004C51.4243 28.7736 57.8458 30.0491 65.7672 30.0491C73.6886 30.0491 80.1101 28.7736 80.1101 27.2004V37.7128C80.1101 37.7128 77.3266 41.1045 66.1115 41.1045C54.8964 41.1045 51.3594 37.0345 51.3594 37.0345L51.4225 27.2004H51.4243Z" fill="#FFCB39"/>
<path d="M29.5277 19.4951C37.4491 19.4951 43.8706 18.2198 43.8706 16.6465C43.8706 15.0732 37.4491 13.7979 29.5277 13.7979C21.6064 13.7979 15.1848 15.0732 15.1848 16.6465C15.1848 18.2198 21.6064 19.4951 29.5277 19.4951Z" fill="#FFDF62"/>
<path d="M15.1831 16.6465C15.1831 18.2196 21.6046 19.4951 29.526 19.4951C37.4474 19.4951 43.8689 18.2196 43.8689 16.6465V27.1589C43.8689 27.1589 41.0854 30.5505 29.8703 30.5505C18.6552 30.5505 15.1182 26.4805 15.1182 26.4805L15.1813 16.6465H15.1831Z" fill="#FFCB39"/>
<path d="M95.4391 16.7007C103.36 16.7007 109.782 15.4253 109.782 13.8521C109.782 12.2788 103.36 11.0034 95.4391 11.0034C87.5177 11.0034 81.0962 12.2788 81.0962 13.8521C81.0962 15.4253 87.5177 16.7007 95.4391 16.7007Z" fill="#FFDF62"/>
<path d="M81.0944 13.8521C81.0944 15.4252 87.5159 16.7007 95.4374 16.7007C103.359 16.7007 109.78 15.4252 109.78 13.8521V24.3644C109.78 24.3644 106.997 27.7561 95.7817 27.7561C84.5666 27.7561 81.0295 23.6861 81.0295 23.6861L81.0926 13.8521H81.0944Z" fill="#FFCB39"/>
<path d="M59.8253 6.37771C67.7467 6.37771 74.1682 5.10233 74.1682 3.52906C74.1682 1.9558 67.7467 0.68042 59.8253 0.68042C51.904 0.68042 45.4824 1.9558 45.4824 3.52906C45.4824 5.10233 51.904 6.37771 59.8253 6.37771Z" fill="#FFDF62"/>
<path d="M45.4824 3.52905C45.4824 5.10221 51.9039 6.3777 59.8253 6.3777C67.7467 6.3777 74.1682 5.10221 74.1682 3.52905V14.0414C74.1682 14.0414 71.3847 17.4331 60.1696 17.4331C48.9545 17.4331 45.4175 13.3631 45.4175 13.3631L45.4806 3.52905H45.4824Z" fill="#FFCB39"/>
<path d="M0.526367 28.0862L65.5688 47.3971V97.233L0.713856 76.2768L0.526367 28.0862Z" fill="#FFDF62"/>
</g>
<defs>
<clipPath id="clip0_230_1911">
<rect width="123" height="97" fill="white" transform="translate(0 0.5)"/>
</clipPath>
</defs>
</svg>
