<svg width="34" height="39" viewBox="0 0 34 39" fill="none" xmlns="http://www.w3.org/2000/svg">
<g clip-path="url(#clip0_1693_497)">
<path d="M21.5662 0.5H13.277C11.906 0.5 10.7902 1.56558 10.7902 2.875V7.625C10.7902 8.062 11.1616 8.41667 11.6191 8.41667H23.224C23.6816 8.41667 24.053 8.062 24.053 7.625V2.875C24.053 1.56558 22.9372 0.5 21.5662 0.5Z" fill="#FFDF62"/>
<path d="M26.5397 32.1667H8.30341C7.84584 32.1667 7.47449 32.5214 7.47449 32.9584V37.7084C7.47449 38.1454 7.84584 38.5001 8.30341 38.5001H26.5397C26.9972 38.5001 27.3686 38.1454 27.3686 37.7084V32.9584C27.3686 32.5214 26.9972 32.1667 26.5397 32.1667Z" fill="#FFDF62"/>
<path d="M26.5397 6.83325H8.30343C4.19033 6.83325 0.84314 10.03 0.84314 13.9583V26.6249C0.84314 30.5532 4.19033 33.7499 8.30343 33.7499H26.5397C30.6528 33.7499 34 30.5532 34 26.6249V13.9583C34 10.03 30.6528 6.83325 26.5397 6.83325ZM10.7902 17.9166C10.7902 17.0442 11.5346 16.3333 12.448 16.3333C13.3615 16.3333 14.1059 17.0442 14.1059 17.9166C14.1059 18.789 13.3615 19.4999 12.448 19.4999C11.5346 19.4999 10.7902 18.789 10.7902 17.9166ZM23.2837 25.0986C21.6673 26.6408 19.5436 27.4134 17.4216 27.4134C15.2995 27.4134 13.1758 26.6408 11.5594 25.0986C11.2362 24.7898 11.2362 24.2879 11.5594 23.9792C11.8827 23.6704 12.4083 23.6704 12.7315 23.9792C15.3178 26.4492 19.5254 26.4492 22.11 23.9792C22.4332 23.6704 22.9588 23.6704 23.282 23.9792C23.6053 24.2879 23.607 24.7883 23.2837 25.0986ZM22.3951 19.4999C21.4816 19.4999 20.7373 18.789 20.7373 17.9166C20.7373 17.0442 21.4816 16.3333 22.3951 16.3333C23.3086 16.3333 24.0529 17.0442 24.0529 17.9166C24.0529 18.789 23.3086 19.4999 22.3951 19.4999Z" fill="#FFDF62"/>
<path d="M26.5397 33.7499H8.30343C4.19033 33.7499 0.84314 30.5532 0.84314 26.6249V13.9583C0.84314 10.03 4.19033 6.83325 8.30343 6.83325H26.5397C30.6528 6.83325 34 10.03 34 13.9583V26.6249C34 30.5548 30.6528 33.7499 26.5397 33.7499ZM8.30343 8.41659C5.1038 8.41659 2.50098 10.9024 2.50098 13.9583V26.6249C2.50098 29.6807 5.1038 32.1666 8.30343 32.1666H26.5397C29.7393 32.1666 32.3422 29.6807 32.3422 26.6249V13.9583C32.3422 10.9024 29.7393 8.41659 26.5397 8.41659H8.30343Z" fill="black"/>
<path d="M23.224 8.41667H11.6191C11.1616 8.41667 10.7902 8.062 10.7902 7.625V2.875C10.7902 1.56558 11.906 0.5 13.277 0.5H21.5662C22.9372 0.5 24.053 1.56558 24.053 2.875V7.625C24.053 8.06358 23.6816 8.41667 23.224 8.41667ZM12.4481 6.83333H22.3951V2.875C22.3951 2.438 22.0238 2.08333 21.5662 2.08333H13.277C12.8194 2.08333 12.4481 2.438 12.4481 2.875V6.83333Z" fill="black"/>
<path d="M26.5397 38.5001H8.30341C7.84584 38.5001 7.47449 38.1454 7.47449 37.7084V32.9584C7.47449 32.5214 7.84584 32.1667 8.30341 32.1667H26.5397C26.9972 32.1667 27.3686 32.5214 27.3686 32.9584V37.7084C27.3686 38.147 26.9972 38.5001 26.5397 38.5001ZM9.13233 36.9167H25.7108V33.7501H9.13233V36.9167Z" fill="black"/>
<path d="M11.5594 25.1005C13.1758 26.6427 15.2995 27.4153 17.4215 27.4153C19.5436 27.4153 21.6673 26.6427 23.282 25.1005C23.6053 24.7917 23.6053 24.2898 23.282 23.9811C22.9587 23.6723 22.4332 23.6723 22.1099 23.9811C19.5253 26.4511 15.3177 26.4511 12.7315 23.9811C12.4082 23.6723 11.8827 23.6723 11.5594 23.9811C11.2361 24.2898 11.2361 24.7917 11.5594 25.1005Z" fill="#FFDF62"/>
<path d="M12.4481 19.4999C13.3637 19.4999 14.1059 18.7911 14.1059 17.9166C14.1059 17.0421 13.3637 16.3333 12.4481 16.3333C11.5325 16.3333 10.7902 17.0421 10.7902 17.9166C10.7902 18.7911 11.5325 19.4999 12.4481 19.4999Z" fill="#FFDF62"/>
<path d="M22.3951 19.4999C23.3107 19.4999 24.0529 18.7911 24.0529 17.9166C24.0529 17.0421 23.3107 16.3333 22.3951 16.3333C21.4795 16.3333 20.7372 17.0421 20.7372 17.9166C20.7372 18.7911 21.4795 19.4999 22.3951 19.4999Z" fill="#FFDF62"/>
<path d="M7.99988 18V12C7.99988 11.7167 8.09588 11.4793 8.28788 11.288C8.47988 11.0967 8.71721 11.0007 8.99988 11H14.9999C15.2832 11 15.5209 11.096 15.7129 11.288C15.9049 11.48 16.0005 11.7173 15.9999 12V18C15.9999 18.2833 15.9039 18.521 15.7119 18.713C15.5199 18.905 15.2825 19.0007 14.9999 19H8.99988C8.71654 19 8.47921 18.904 8.28788 18.712C8.09654 18.52 8.00054 18.2827 7.99988 18ZM9.99988 17H13.9999V13H9.99988V17ZM7.99988 28V22C7.99988 21.7167 8.09588 21.4793 8.28788 21.288C8.47988 21.0967 8.71721 21.0007 8.99988 21H14.9999C15.2832 21 15.5209 21.096 15.7129 21.288C15.9049 21.48 16.0005 21.7173 15.9999 22V28C15.9999 28.2833 15.9039 28.521 15.7119 28.713C15.5199 28.905 15.2825 29.0007 14.9999 29H8.99988C8.71654 29 8.47921 28.904 8.28788 28.712C8.09654 28.52 8.00054 28.2827 7.99988 28ZM9.99988 27H13.9999V23H9.99988V27ZM17.9999 18V12C17.9999 11.7167 18.0959 11.4793 18.2879 11.288C18.4799 11.0967 18.7172 11.0007 18.9999 11H24.9999C25.2832 11 25.5209 11.096 25.7129 11.288C25.9049 11.48 26.0005 11.7173 25.9999 12V18C25.9999 18.2833 25.9039 18.521 25.7119 18.713C25.5199 18.905 25.2825 19.0007 24.9999 19H18.9999C18.7165 19 18.4792 18.904 18.2879 18.712C18.0965 18.52 18.0005 18.2827 17.9999 18ZM19.9999 17H23.9999V13H19.9999V17ZM23.9999 29V27H25.9999V29H23.9999ZM17.9999 23V21H19.9999V23H17.9999ZM19.9999 25V23H21.9999V25H19.9999ZM17.9999 27V25H19.9999V27H17.9999ZM19.9999 29V27H21.9999V29H19.9999ZM21.9999 27V25H23.9999V27H21.9999ZM21.9999 23V21H23.9999V23H21.9999ZM23.9999 25V23H25.9999V25H23.9999Z" fill="#27272A"/>
</g>
<defs>
<clipPath id="clip0_1693_497">
<rect width="33.1569" height="38" fill="white" transform="translate(0.84314 0.5)"/>
</clipPath>
</defs>
</svg>
