<svg width="171" height="126" viewBox="0 0 171 126" fill="none" xmlns="http://www.w3.org/2000/svg">
<g clip-path="url(#clip0_149_1686)">
<path d="M127.115 15.6648H43.885C19.648 15.6648 0 33.3508 0 55.1675V79.6864C0 101.503 19.648 119.189 43.885 119.189H127.115C151.352 119.189 171 101.503 171 79.6864V55.1675C171 33.3508 151.352 15.6648 127.115 15.6648Z" fill="white"/>
<path d="M84.7434 6.81079H49.938V25.2H84.7434V6.81079Z" fill="white"/>
<path d="M139.221 0H119.549V10.8973H139.221V0Z" fill="white"/>
<path d="M111.226 4.76758H132.411C153.724 4.76758 171 20.319 171 39.5027V72.1946H111.226V4.76758Z" fill="white"/>
<path d="M164.947 125.319L127.115 100.119L154.471 87.1785L164.947 125.319Z" fill="white" stroke="white" stroke-linejoin="round"/>
<path d="M28.784 54.944H30.848L31.424 66.8H28.232L28.784 54.944ZM29.84 49.784C30.336 49.784 30.76 49.96 31.112 50.312C31.464 50.664 31.64 51.096 31.64 51.608C31.64 52.104 31.464 52.528 31.112 52.88C30.76 53.232 30.336 53.408 29.84 53.408C29.328 53.408 28.888 53.232 28.52 52.88C28.168 52.528 27.992 52.104 27.992 51.608C27.992 51.096 28.168 50.664 28.52 50.312C28.888 49.96 29.328 49.784 29.84 49.784ZM34.2161 62V45.2H36.9761V62H34.2161ZM35.6321 62V59.36H45.0881V62H35.6321ZM45.8073 62V49.88H48.5673V62H45.8073ZM47.1993 48.056C46.7193 48.056 46.3113 47.888 45.9753 47.552C45.6393 47.216 45.4713 46.8 45.4713 46.304C45.4713 45.84 45.6393 45.44 45.9753 45.104C46.3113 44.752 46.7273 44.576 47.2233 44.576C47.6873 44.576 48.0873 44.752 48.4233 45.104C48.7753 45.44 48.9513 45.848 48.9513 46.328C48.9513 46.808 48.7753 47.216 48.4233 47.552C48.0873 47.888 47.6793 48.056 47.1993 48.056ZM54.7638 62.36C53.4518 62.36 52.3318 62.048 51.4038 61.424C50.4758 60.8 49.8598 59.944 49.5558 58.856L52.0758 58.232L52.3398 58.28C52.4838 58.792 52.7878 59.2 53.2518 59.504C53.7318 59.792 54.2838 59.936 54.9078 59.936C55.5158 59.936 56.0278 59.808 56.4438 59.552C56.8758 59.28 57.0918 58.936 57.0918 58.52C57.0918 58.168 56.9638 57.888 56.7078 57.68C56.4678 57.456 56.0918 57.288 55.5798 57.176L53.2998 56.672C52.1798 56.416 51.3238 55.992 50.7318 55.4C50.1558 54.792 49.8678 54.064 49.8678 53.216C49.8678 52.48 50.0678 51.84 50.4678 51.296C50.8838 50.736 51.4518 50.304 52.1718 50C52.8918 49.68 53.7158 49.52 54.6438 49.52C55.9078 49.52 56.9798 49.832 57.8598 50.456C58.7398 51.08 59.3238 51.952 59.6118 53.072L57.2118 53.576L56.9478 53.528C56.8198 53.048 56.5238 52.664 56.0598 52.376C55.6118 52.088 55.0998 51.944 54.5238 51.944C53.9798 51.944 53.5158 52.056 53.1318 52.28C52.7638 52.488 52.5798 52.776 52.5798 53.144C52.5798 53.416 52.6918 53.664 52.9158 53.888C53.1398 54.096 53.4918 54.248 53.9718 54.344L56.2518 54.872C57.4358 55.144 58.3238 55.56 58.9158 56.12C59.5238 56.664 59.8278 57.408 59.8278 58.352C59.8278 59.168 59.6038 59.88 59.1558 60.488C58.7238 61.08 58.1238 61.544 57.3558 61.88C56.6038 62.2 55.7398 62.36 54.7638 62.36ZM65.3909 62C64.2069 62 63.2629 61.632 62.5589 60.896C61.8549 60.144 61.5029 59.136 61.5029 57.872V46.736H64.2629V57.584C64.2629 58.224 64.4229 58.704 64.7429 59.024C65.0789 59.344 65.5589 59.504 66.1829 59.504H67.4309L67.5509 59.768V62H65.3909ZM59.4389 52.352V49.88H67.5509V52.352H59.4389ZM72.1544 62.36C71.3224 62.36 70.5784 62.2 69.9224 61.88C69.2824 61.56 68.7784 61.112 68.4104 60.536C68.0424 59.96 67.8584 59.304 67.8584 58.568C67.8584 57.432 68.2504 56.528 69.0344 55.856C69.8184 55.168 70.9464 54.768 72.4184 54.656L77.1224 54.272V56.552L72.8264 56.912C72.0584 56.976 71.5064 57.136 71.1704 57.392C70.8344 57.648 70.6664 57.992 70.6664 58.424C70.6664 58.856 70.8584 59.208 71.2424 59.48C71.6264 59.752 72.1144 59.888 72.7064 59.888C73.3304 59.888 73.8904 59.736 74.3864 59.432C74.8984 59.112 75.3064 58.704 75.6104 58.208C75.9144 57.712 76.0664 57.176 76.0664 56.6V54.608C76.0664 53.84 75.8104 53.208 75.2984 52.712C74.7864 52.2 74.1144 51.944 73.2824 51.944C72.5784 51.944 71.9944 52.12 71.5304 52.472C71.0824 52.808 70.7944 53.232 70.6664 53.744H70.4024L68.0504 53.168C68.3384 52.08 68.9384 51.2 69.8504 50.528C70.7784 49.856 71.9304 49.52 73.3064 49.52C75.0184 49.52 76.3544 50.016 77.3144 51.008C78.2744 51.984 78.7544 53.368 78.7544 55.16V62H76.3064V58.472L77.2904 58.616C77.0984 59.304 76.7544 59.936 76.2584 60.512C75.7624 61.072 75.1624 61.52 74.4584 61.856C73.7704 62.192 73.0024 62.36 72.1544 62.36ZM33.128 86.36C31.896 86.36 30.808 86.088 29.864 85.544C28.936 85 28.208 84.248 27.68 83.288C27.152 82.328 26.888 81.208 26.888 79.928C26.888 78.664 27.144 77.552 27.656 76.592C28.184 75.616 28.904 74.864 29.816 74.336C30.744 73.792 31.808 73.52 33.008 73.52C34.208 73.52 35.248 73.8 36.128 74.36C37.024 74.904 37.72 75.672 38.216 76.664C38.728 77.656 38.984 78.816 38.984 80.144V80.6L38.624 80.96H28.184V78.656H37.736L36.272 79.208C36.256 78.536 36.096 77.96 35.792 77.48C35.504 76.984 35.12 76.608 34.64 76.352C34.176 76.08 33.648 75.944 33.056 75.944C32.416 75.944 31.832 76.096 31.304 76.4C30.776 76.688 30.368 77.096 30.08 77.624C29.792 78.136 29.648 78.736 29.648 79.424V80.384C29.648 81.04 29.8 81.64 30.104 82.184C30.424 82.712 30.848 83.136 31.376 83.456C31.904 83.776 32.488 83.936 33.128 83.936C33.736 83.936 34.288 83.776 34.784 83.456C35.296 83.12 35.696 82.672 35.984 82.112H36.272L38.504 83.072C38.024 84.112 37.312 84.92 36.368 85.496C35.44 86.072 34.36 86.36 33.128 86.36ZM40.1636 86V73.88H42.7556V76.976L42.0596 76.928C42.3156 76.224 42.6836 75.624 43.1636 75.128C43.6436 74.616 44.2036 74.224 44.8436 73.952C45.4836 73.664 46.1796 73.52 46.9316 73.52C47.7956 73.52 48.5716 73.712 49.2596 74.096C49.9636 74.464 50.5156 75.016 50.9156 75.752C51.3316 76.472 51.5396 77.376 51.5396 78.464V86H48.7796V79.304C48.7796 78.536 48.6756 77.912 48.4676 77.432C48.2596 76.952 47.9556 76.6 47.5556 76.376C47.1716 76.152 46.7236 76.04 46.2116 76.04C45.7316 76.04 45.2356 76.16 44.7236 76.4C44.2276 76.64 43.8036 77.04 43.4516 77.6C43.0996 78.16 42.9236 78.92 42.9236 79.88V86H40.1636ZM58.9244 86.36C57.6764 86.36 56.5804 86.088 55.6364 85.544C54.6924 85 53.9564 84.248 53.4284 83.288C52.9004 82.328 52.6364 81.208 52.6364 79.928C52.6364 78.664 52.9004 77.552 53.4284 76.592C53.9564 75.616 54.6924 74.864 55.6364 74.336C56.5804 73.792 57.6764 73.52 58.9244 73.52C59.8844 73.52 60.7404 73.68 61.4924 74C62.2604 74.32 62.9084 74.792 63.4364 75.416C63.9644 76.04 64.3644 76.808 64.6364 77.72L62.3324 78.368H62.0444C61.8204 77.648 61.4204 77.08 60.8444 76.664C60.2684 76.232 59.6284 76.016 58.9244 76.016C58.2044 76.016 57.5804 76.176 57.0524 76.496C56.5244 76.816 56.1164 77.272 55.8284 77.864C55.5404 78.44 55.3964 79.128 55.3964 79.928C55.3964 80.712 55.5404 81.4 55.8284 81.992C56.1164 82.584 56.5244 83.048 57.0524 83.384C57.5804 83.704 58.2044 83.864 58.9244 83.864C59.4364 83.864 59.9004 83.768 60.3164 83.576C60.7484 83.384 61.1244 83.112 61.4444 82.76C61.7644 82.408 62.0044 81.984 62.1644 81.488H62.4524L64.7564 82.136C64.4684 83.064 64.0524 83.848 63.5084 84.488C62.9644 85.112 62.3084 85.584 61.5404 85.904C60.7884 86.208 59.9164 86.36 58.9244 86.36ZM71.4097 86.36C70.1937 86.36 69.1217 86.088 68.1937 85.544C67.2657 85 66.5377 84.248 66.0097 83.288C65.4817 82.312 65.2177 81.192 65.2177 79.928C65.2177 78.68 65.4817 77.576 66.0097 76.616C66.5377 75.64 67.2657 74.88 68.1937 74.336C69.1217 73.792 70.1937 73.52 71.4097 73.52C72.6417 73.52 73.7217 73.792 74.6497 74.336C75.5777 74.88 76.3057 75.64 76.8337 76.616C77.3617 77.576 77.6257 78.68 77.6257 79.928C77.6257 81.192 77.3617 82.312 76.8337 83.288C76.3057 84.248 75.5777 85 74.6497 85.544C73.7217 86.088 72.6417 86.36 71.4097 86.36ZM71.4097 83.864C72.1137 83.864 72.7217 83.704 73.2337 83.384C73.7457 83.064 74.1457 82.608 74.4337 82.016C74.7217 81.424 74.8657 80.736 74.8657 79.952C74.8657 79.136 74.7217 78.44 74.4337 77.864C74.1457 77.272 73.7457 76.816 73.2337 76.496C72.7217 76.176 72.1137 76.016 71.4097 76.016C70.7217 76.016 70.1217 76.176 69.6097 76.496C69.0977 76.816 68.6977 77.272 68.4097 77.864C68.1217 78.44 67.9777 79.128 67.9777 79.928C67.9777 80.728 68.1217 81.424 68.4097 82.016C68.6977 82.608 69.0977 83.064 69.6097 83.384C70.1217 83.704 70.7217 83.864 71.4097 83.864ZM78.8214 86V73.88H81.4134V76.976L80.7174 76.928C80.9734 76.224 81.3414 75.624 81.8214 75.128C82.3014 74.616 82.8614 74.224 83.5014 73.952C84.1414 73.664 84.8374 73.52 85.5894 73.52C86.4534 73.52 87.2294 73.712 87.9174 74.096C88.6214 74.464 89.1734 75.016 89.5734 75.752C89.9894 76.472 90.1974 77.376 90.1974 78.464V86H87.4374V79.304C87.4374 78.536 87.3334 77.912 87.1254 77.432C86.9174 76.952 86.6134 76.6 86.2134 76.376C85.8294 76.152 85.3814 76.04 84.8694 76.04C84.3894 76.04 83.8934 76.16 83.3814 76.4C82.8854 76.64 82.4614 77.04 82.1094 77.6C81.7574 78.16 81.5814 78.92 81.5814 79.88V86H78.8214ZM96.0425 86C94.8585 86 93.9145 85.632 93.2105 84.896C92.5065 84.144 92.1545 83.136 92.1545 81.872V70.736H94.9145V81.584C94.9145 82.224 95.0745 82.704 95.3945 83.024C95.7305 83.344 96.2105 83.504 96.8345 83.504H98.0825L98.2025 83.768V86H96.0425ZM90.0905 76.352V73.88H98.2025V76.352H90.0905ZM99.5308 86V73.88H102.123V76.976L101.427 76.928C101.763 75.984 102.323 75.24 103.107 74.696C103.891 74.152 104.787 73.88 105.795 73.88H106.971V76.352H105.387C104.763 76.352 104.219 76.496 103.755 76.784C103.291 77.056 102.931 77.448 102.675 77.96C102.419 78.472 102.291 79.08 102.291 79.784V86H99.5308ZM110.7 86.36C109.868 86.36 109.124 86.2 108.468 85.88C107.828 85.56 107.324 85.112 106.956 84.536C106.588 83.96 106.404 83.304 106.404 82.568C106.404 81.432 106.796 80.528 107.58 79.856C108.364 79.168 109.492 78.768 110.964 78.656L115.668 78.272V80.552L111.372 80.912C110.604 80.976 110.052 81.136 109.716 81.392C109.38 81.648 109.212 81.992 109.212 82.424C109.212 82.856 109.404 83.208 109.788 83.48C110.172 83.752 110.66 83.888 111.252 83.888C111.876 83.888 112.436 83.736 112.932 83.432C113.444 83.112 113.852 82.704 114.156 82.208C114.46 81.712 114.612 81.176 114.612 80.6V78.608C114.612 77.84 114.356 77.208 113.844 76.712C113.332 76.2 112.66 75.944 111.828 75.944C111.124 75.944 110.54 76.12 110.076 76.472C109.628 76.808 109.34 77.232 109.212 77.744H108.948L106.596 77.168C106.884 76.08 107.484 75.2 108.396 74.528C109.324 73.856 110.476 73.52 111.852 73.52C113.564 73.52 114.9 74.016 115.86 75.008C116.82 75.984 117.3 77.368 117.3 79.16V86H114.852V82.472L115.836 82.616C115.644 83.304 115.3 83.936 114.804 84.512C114.308 85.072 113.708 85.52 113.004 85.856C112.316 86.192 111.548 86.36 110.7 86.36ZM124.205 86.36C123.117 86.36 122.133 86.088 121.253 85.544C120.373 84.984 119.677 84.224 119.165 83.264C118.653 82.304 118.397 81.2 118.397 79.952C118.397 78.688 118.653 77.576 119.165 76.616C119.677 75.656 120.373 74.904 121.253 74.36C122.133 73.8 123.117 73.52 124.205 73.52C125.101 73.52 125.901 73.704 126.605 74.072C127.325 74.44 127.917 74.92 128.381 75.512C128.861 76.088 129.197 76.72 129.389 77.408V82.496C129.197 83.168 128.861 83.8 128.381 84.392C127.917 84.984 127.325 85.464 126.605 85.832C125.901 86.184 125.101 86.36 124.205 86.36ZM124.613 83.84C125.317 83.84 125.933 83.68 126.461 83.36C126.989 83.024 127.405 82.56 127.709 81.968C128.013 81.376 128.165 80.696 128.165 79.928C128.165 79.16 128.013 78.488 127.709 77.912C127.405 77.32 126.989 76.856 126.461 76.52C125.933 76.184 125.317 76.016 124.613 76.016C123.941 76.016 123.341 76.184 122.813 76.52C122.285 76.856 121.877 77.32 121.589 77.912C121.301 78.488 121.157 79.16 121.157 79.928C121.157 80.696 121.301 81.376 121.589 81.968C121.877 82.56 122.285 83.024 122.813 83.36C123.341 83.68 123.941 83.84 124.613 83.84ZM128.261 86V82.256L128.837 79.928L128.093 77.624V68.72L130.781 68.384L130.853 68.576V86H128.261ZM136.542 86.36C135.71 86.36 134.966 86.2 134.31 85.88C133.67 85.56 133.166 85.112 132.798 84.536C132.43 83.96 132.246 83.304 132.246 82.568C132.246 81.432 132.638 80.528 133.422 79.856C134.206 79.168 135.334 78.768 136.806 78.656L141.51 78.272V80.552L137.214 80.912C136.446 80.976 135.894 81.136 135.558 81.392C135.222 81.648 135.054 81.992 135.054 82.424C135.054 82.856 135.246 83.208 135.63 83.48C136.014 83.752 136.502 83.888 137.094 83.888C137.718 83.888 138.278 83.736 138.774 83.432C139.286 83.112 139.694 82.704 139.998 82.208C140.302 81.712 140.454 81.176 140.454 80.6V78.608C140.454 77.84 140.198 77.208 139.686 76.712C139.174 76.2 138.502 75.944 137.67 75.944C136.966 75.944 136.382 76.12 135.918 76.472C135.47 76.808 135.182 77.232 135.054 77.744H134.79L132.438 77.168C132.726 76.08 133.326 75.2 134.238 74.528C135.166 73.856 136.318 73.52 137.694 73.52C139.406 73.52 140.742 74.016 141.702 75.008C142.662 75.984 143.142 77.368 143.142 79.16V86H140.694V82.472L141.678 82.616C141.486 83.304 141.142 83.936 140.646 84.512C140.15 85.072 139.55 85.52 138.846 85.856C138.158 86.192 137.39 86.36 136.542 86.36ZM146.136 81.056L145.584 69.2H148.776L148.2 81.056H146.136ZM147.192 86.216C146.68 86.216 146.24 86.04 145.872 85.688C145.52 85.336 145.344 84.904 145.344 84.392C145.344 83.896 145.52 83.472 145.872 83.12C146.24 82.768 146.68 82.592 147.192 82.592C147.688 82.592 148.112 82.768 148.464 83.12C148.816 83.472 148.992 83.896 148.992 84.392C148.992 84.904 148.816 85.336 148.464 85.688C148.112 86.04 147.688 86.216 147.192 86.216Z" fill="black"/>
</g>
<defs>
<clipPath id="clip0_149_1686">
<rect width="171" height="126" fill="white"/>
</clipPath>
</defs>
</svg>
